<svg version="1" xmlns="http://www.w3.org/2000/svg" width="222.667" height="222.667" viewBox="0 0 167.000000 167.000000"><path d="M42.6 10.6c-9.3 5.1-17.3 9.7-17.7 10.1-.6.6-1.2 41.9-.9 68.4v4.7l10.2 6c5.6 3.4 10.4 5.9 10.6 5.8.2-.2.6-10 .9-21.7.3-11.8.6-21.5.7-21.6 0-.1 2.6 1.5 5.6 3.5l5.4 3.7-.2 22-.2 22.1 10.7 6.7c5.9 3.7 10.8 6.6 10.9 6.4.2-.1.4-16.3.6-35.9l.3-35.7-4.8-3.1c-2.6-1.6-4.9-3-5.1-3-.1 0-5.6-3.1-12.2-6.8-16.3-9.3-16.4-9.8-1.2-18.3 6.2-3.4 13.9-7.8 17.2-9.7l5.8-3.4-8.8-4.9c-4.9-2.6-9.3-4.8-9.9-4.7-.5 0-8.6 4.2-17.9 9.4z"/><path d="M71.5 22.4c-3.3 1.8-8.8 4.9-12.3 6.8l-6.3 3.5 16 8.9c11 6.1 16.1 9.5 16.5 10.9.2 1.1.5 11.2.6 22.5.4 56.7.4 57.9 2 57 1.7-.9 26.7-15.5 29-17 .8-.5 6.8-3.9 13.3-7.7l11.7-6.8-.1-13.3c-.1-7.2-.4-13.2-.7-13.2-.5 0-22.9 12.2-28 15.2l-3.3 2 .3-27.4.3-27.4L94 27.8l-16.6-8.6-5.9 3.2zm18.9 8c6.6 3.6 12.9 7.1 13.9 7.8 1.7 1.3 1.9 3.5 2 30.1 0 15.8.2 28.7.5 28.7.2 0 7.1-3.9 15.4-8.6 8.2-4.8 15.1-8.5 15.3-8.3.3.4.8 12.5.6 16.6 0 1.3-.5 2.3-1 2.3s-11.2 6.1-23.6 13.6c-12.4 7.5-22.8 13.4-23.1 13.2-.2-.3-.5-17.4-.6-38.1-.1-20.8-.4-38.1-.7-38.5-.3-.5-6.6-4.2-13.8-8.3C68 36.8 62 33.3 62 33c0-.6 14.2-8.9 15.4-8.9.4-.1 6.3 2.8 13 6.3zM6.2 156c.1 6.9.4 10 1.2 9.7.6-.2 1.2-1.7 1.2-3.3.1-1.6.2-3.5.3-4.2.1-.8 1.9-1.2 5.4-1.2h5.4l-.2 4.5c-.1 3.1.3 4.5 1.2 4.5 1 0 1.3-2.5 1.3-10 0-7.7-.3-10-1.3-10s-1.3 1.3-1.2 4.5l.2 4.5h-5.3c-5.7 0-5.7.1-5.6-5.8 0-2-.4-3.2-1.3-3.2-1 0-1.3 2.3-1.3 10zM31.1 148.2c-6.3 16.2-6.8 17.8-5.6 17.8.7 0 1.8-1.4 2.5-3 1.1-2.7 1.7-3 5.5-3s4.4.3 5.5 3c.7 1.6 1.9 3 2.6 3 1.4 0 .5-3-4.8-15.3-2.2-5.1-4.3-6-5.7-2.5zm4.2 5.3l1.6 4.5h-3.4c-3.7 0-3.7.1-1.3-6.3.6-1.5 1.2-2.7 1.3-2.7.2 0 1 2 1.8 4.5zM45.9 146.7c-.1 1.1-.1 12 0 16.1.1 2.2.5 3.2 1.3 3 .8-.3 1.2-1.9 1-4.1l-.4-3.7h4.4c5.6 0 8.8-2.2 8.8-6 0-4-3.2-6-9.7-6-2.9 0-5.3.3-5.4.7zm12.1 3.2c1.3 2.5 1.3 2.7-.6 4.5-.9.9-3.2 1.6-5.4 1.6-3.9 0-3.9 0-3.8-4v-4h4.4c3.3 0 4.6.5 5.4 1.9zM65 156c0 6 .4 10 1 10 1 0 1.4-1.8 1-5.8-.1-2 .3-2.2 4.2-2.2 7.6 0 11-4.5 7.2-9.8-1.3-1.9-2.4-2.2-7.5-2.2H65v10zm11.9-5.8c1.5 3.9-.4 5.8-5.4 5.8H67v-8h4.5c3.8 0 4.7.4 5.4 2.2zM82.6 147.2c.4.7 2 3.2 3.6 5.5 1.9 2.8 2.8 5.5 3 8.7.2 6 2.4 6.1 2.5.1.1-3.4 1-5.5 3.7-9.1 2-2.6 3.6-5.1 3.6-5.5 0-2.1-2.2-.5-5.1 3.7l-3.1 4.6-3.2-4.6c-1.7-2.5-3.7-4.6-4.4-4.6-.8 0-1 .5-.6 1.2zM102.8 149.7c-.2 2.1-.1 6.6 0 10l.4 6.3h5.9c3.3 0 5.9-.4 5.9-1s-2.2-1-5-1h-5v-9c0-8.8-1.6-12.6-2.2-5.3zM118.8 149.7c-.5 6.2.3 16.3 1.3 16.3.5 0 .9-4.5.9-10 0-5.6-.4-10-.9-10-.6 0-1.1 1.7-1.3 3.7zM126.5 156c0 7.4.3 10 1.2 10 .9 0 1.3-1.6 1.3-4.5V157h4.5c2.5 0 4.5-.5 4.5-1 0-.6-2-1-4.5-1-4.5 0-4.5 0-4.5-3.5V148h5.5c3 0 5.5-.5 5.5-1 0-.6-2.9-1-6.8-1h-6.7v10zM143.9 148.7c-.1 3.8-.1 12.3 0 15 .1 2.2.5 2.3 7.6 2.3 4.3 0 7.5-.4 7.5-1s-2.8-1-6.5-1H146v-7h5.4c3 0 5.8-.5 6.1-1 .4-.6-1.7-1-5.4-1H146v-7h6c3.3 0 6-.4 6-1s-3-1-7-1c-6.9 0-7 0-7.1 2.7z"/></svg>